solid OpenSCAD_Model
  facet normal -1 0 0
    outer loop
      vertex -5 8.52045 0
      vertex -5 47.5 5
      vertex -5 47.5 0
    endloop
  endfacet
  facet normal -1 -0 0
    outer loop
      vertex -5 47.5 5
      vertex -5 8.52045 0
      vertex -5 8.52045 5
    endloop
  endfacet
  facet normal 0 0 1
    outer loop
      vertex 5 47.5 5
      vertex 3.05 44 5
      vertex 5 8.52045 5
    endloop
  endfacet
  facet normal 0 0 1
    outer loop
      vertex 5 47.5 5
      vertex -3.05 44 5
      vertex 3.05 44 5
    endloop
  endfacet
  facet normal 0 0 1
    outer loop
      vertex -3.05 44 5
      vertex -5 47.5 5
      vertex -3.05 12 5
    endloop
  endfacet
  facet normal -0 0 1
    outer loop
      vertex -5 47.5 5
      vertex -3.05 44 5
      vertex 5 47.5 5
    endloop
  endfacet
  facet normal -0 0 1
    outer loop
      vertex 3.05 12 5
      vertex 5 8.52045 5
      vertex 3.05 44 5
    endloop
  endfacet
  facet normal -0 0 1
    outer loop
      vertex 5 8.52045 5
      vertex 0 3.5 5
      vertex 5.02045 8.52045 5
    endloop
  endfacet
  facet normal 0 0 1
    outer loop
      vertex 3.05 12 5
      vertex 0 3.5 5
      vertex 5 8.52045 5
    endloop
  endfacet
  facet normal -0 0 1
    outer loop
      vertex -3.05 12 5
      vertex 0 3.5 5
      vertex 3.05 12 5
    endloop
  endfacet
  facet normal 0 0 1
    outer loop
      vertex -5 8.52045 5
      vertex -3.05 12 5
      vertex -5 47.5 5
    endloop
  endfacet
  facet normal -0 0 1
    outer loop
      vertex -5 8.52045 5
      vertex 0 3.5 5
      vertex -3.05 12 5
    endloop
  endfacet
  facet normal 0 0 1
    outer loop
      vertex 0 3.5 5
      vertex -5 8.52045 5
      vertex -5.02045 8.52045 5
    endloop
  endfacet
  facet normal 1 -0 0
    outer loop
      vertex 5 8.52045 5
      vertex 5 47.5 0
      vertex 5 47.5 5
    endloop
  endfacet
  facet normal 1 0 0
    outer loop
      vertex 5 47.5 0
      vertex 5 8.52045 5
      vertex 5 8.52045 0
    endloop
  endfacet
  facet normal 0 1 -0
    outer loop
      vertex 5 47.5 0
      vertex -5 47.5 5
      vertex 5 47.5 5
    endloop
  endfacet
  facet normal 0 1 0
    outer loop
      vertex -5 47.5 5
      vertex 5 47.5 0
      vertex -5 47.5 0
    endloop
  endfacet
  facet normal 0 0 -1
    outer loop
      vertex 5 8.52045 0
      vertex 3.05 12 0
      vertex 5 47.5 0
    endloop
  endfacet
  facet normal 0 0 -1
    outer loop
      vertex 0 3.5 0
      vertex 5 8.52045 0
      vertex 5.02045 8.52045 0
    endloop
  endfacet
  facet normal 0 0 -1
    outer loop
      vertex 0 3.5 0
      vertex 3.05 12 0
      vertex 5 8.52045 0
    endloop
  endfacet
  facet normal 0 0 -1
    outer loop
      vertex 0 3.5 0
      vertex -3.05 12 0
      vertex 3.05 12 0
    endloop
  endfacet
  facet normal -0 0 -1
    outer loop
      vertex -3.05 12 0
      vertex -5 8.52045 0
      vertex -3.05 44 0
    endloop
  endfacet
  facet normal 0 0 -1
    outer loop
      vertex 0 3.5 0
      vertex -5 8.52045 0
      vertex -3.05 12 0
    endloop
  endfacet
  facet normal -0 -0 -1
    outer loop
      vertex -5 8.52045 0
      vertex 0 3.5 0
      vertex -5.02045 8.52045 0
    endloop
  endfacet
  facet normal 0 0 -1
    outer loop
      vertex 3.05 44 0
      vertex 5 47.5 0
      vertex 3.05 12 0
    endloop
  endfacet
  facet normal 0 0 -1
    outer loop
      vertex -3.05 44 0
      vertex 5 47.5 0
      vertex 3.05 44 0
    endloop
  endfacet
  facet normal 0 0 -1
    outer loop
      vertex -3.05 44 0
      vertex -5 47.5 0
      vertex 5 47.5 0
    endloop
  endfacet
  facet normal 0 0 -1
    outer loop
      vertex -5 47.5 0
      vertex -3.05 44 0
      vertex -5 8.52045 0
    endloop
  endfacet
  facet normal 1 -0 0
    outer loop
      vertex -3.05 12 5
      vertex -3.05 44 0
      vertex -3.05 44 5
    endloop
  endfacet
  facet normal 1 0 0
    outer loop
      vertex -3.05 44 0
      vertex -3.05 12 5
      vertex -3.05 12 0
    endloop
  endfacet
  facet normal -1 0 0
    outer loop
      vertex 3.05 12 0
      vertex 3.05 44 5
      vertex 3.05 44 0
    endloop
  endfacet
  facet normal -1 -0 0
    outer loop
      vertex 3.05 44 5
      vertex 3.05 12 0
      vertex 3.05 12 5
    endloop
  endfacet
  facet normal 0 -1 0
    outer loop
      vertex -3.05 44 0
      vertex 3.05 44 5
      vertex -3.05 44 5
    endloop
  endfacet
  facet normal 0 -1 -0
    outer loop
      vertex 3.05 44 5
      vertex -3.05 44 0
      vertex 3.05 44 0
    endloop
  endfacet
  facet normal 0 1 -0
    outer loop
      vertex 3.05 12 0
      vertex -3.05 12 5
      vertex 3.05 12 5
    endloop
  endfacet
  facet normal 0 1 0
    outer loop
      vertex -3.05 12 5
      vertex 3.05 12 0
      vertex -3.05 12 0
    endloop
  endfacet
  facet normal 0.707107 -0.707107 0
    outer loop
      vertex 5.02045 8.52045 5
      vertex 1.8033 5.3033 2.47487
      vertex 5.02045 8.52045 0
    endloop
  endfacet
  facet normal 0.707107 -0.707107 0
    outer loop
      vertex 0 3.5 5
      vertex 1.8033 5.3033 2.47487
      vertex 5.02045 8.52045 5
    endloop
  endfacet
  facet normal 0.707107 -0.707107 0
    outer loop
      vertex 1.8033 5.3033 2.47487
      vertex 0 3.5 5
      vertex 0 3.5 4.27817
    endloop
  endfacet
  facet normal 0.707107 -0.707107 0
    outer loop
      vertex 0 3.5 0
      vertex 1.8033 5.3033 2.47487
      vertex 0 3.5 0.671573
    endloop
  endfacet
  facet normal 0.707107 -0.707107 0
    outer loop
      vertex 1.8033 5.3033 2.47487
      vertex 0 3.5 0
      vertex 5.02045 8.52045 0
    endloop
  endfacet
  facet normal 0 1 -0
    outer loop
      vertex -5 8.52045 0
      vertex -5.02045 8.52045 5
      vertex -5 8.52045 5
    endloop
  endfacet
  facet normal 0 1 0
    outer loop
      vertex -5.02045 8.52045 5
      vertex -5 8.52045 0
      vertex -5.02045 8.52045 0
    endloop
  endfacet
  facet normal 0 1 -0
    outer loop
      vertex 5.02045 8.52045 0
      vertex 5 8.52045 5
      vertex 5.02045 8.52045 5
    endloop
  endfacet
  facet normal 0 1 0
    outer loop
      vertex 5 8.52045 5
      vertex 5.02045 8.52045 0
      vertex 5 8.52045 0
    endloop
  endfacet
  facet normal -0.707107 -0.707107 0
    outer loop
      vertex -5.02045 8.52045 0
      vertex -1.8033 5.3033 2.47487
      vertex -5.02045 8.52045 5
    endloop
  endfacet
  facet normal -0.707107 -0.707107 0
    outer loop
      vertex 0 3.5 0
      vertex -1.8033 5.3033 2.47487
      vertex -5.02045 8.52045 0
    endloop
  endfacet
  facet normal -0.707107 -0.707107 0
    outer loop
      vertex -1.8033 5.3033 2.47487
      vertex 0 3.5 0
      vertex 0 3.5 0.671573
    endloop
  endfacet
  facet normal -0.707107 -0.707107 -0
    outer loop
      vertex 0 3.5 5
      vertex -1.8033 5.3033 2.47487
      vertex 0 3.5 4.27817
    endloop
  endfacet
  facet normal -0.707107 -0.707107 0
    outer loop
      vertex -1.8033 5.3033 2.47487
      vertex 0 3.5 5
      vertex -5.02045 8.52045 5
    endloop
  endfacet
  facet normal -0 -0.707107 -0.707107
    outer loop
      vertex 1.8033 5.3033 2.47487
      vertex 0 3.5 4.27817
      vertex -1.8033 5.3033 2.47487
    endloop
  endfacet
  facet normal 0 -0.707107 0.707107
    outer loop
      vertex 0 3.5 0.671573
      vertex 1.8033 5.3033 2.47487
      vertex -1.8033 5.3033 2.47487
    endloop
  endfacet
endsolid OpenSCAD_Model
